<svg xmlns="http://www.w3.org/2000/svg" version="1.1" xmlns:xlink="http://www.w3.org/1999/xlink" xmlns:svgjs="http://svgjs.dev/svgjs" width="1500" height="939" viewBox="0 0 1500 939"><g transform="matrix(1,0,0,1,-0.9090909090909918,-1.5145161290323017)"><svg viewBox="0 0 396 248" data-background-color="#ffffff" preserveAspectRatio="xMidYMid meet" height="939" width="1500" xmlns="http://www.w3.org/2000/svg" xmlns:xlink="http://www.w3.org/1999/xlink"><g id="tight-bounds" transform="matrix(1,0,0,1,0.2400000000000091,0.4000000000000057)"><svg viewBox="0 0 395.52 247.2" height="247.2" width="395.52"><g><svg></svg></g><g><svg viewBox="0 0 395.52 247.2" height="247.2" width="395.52"><g transform="matrix(1,0,0,1,95.37961029551954,47.215199999999996)"><svg viewBox="0 0 204.7607794089609 152.7696" height="152.7696" width="204.7607794089609"><g><svg viewBox="0 0 204.7607794089609 152.7696" height="152.7696" width="204.7607794089609"><g><svg viewBox="0 0 204.7607794089609 152.7696" height="152.7696" width="204.7607794089609"><g><svg viewBox="0 0 204.7607794089609 152.7696" height="152.7696" width="204.7607794089609"><g id="textblocktransform"><svg viewBox="0 0 204.7607794089609 152.7696" height="152.7696" width="204.7607794089609" id="textblock"><g><svg viewBox="0 0 204.7607794089609 152.7696" height="152.7696" width="204.7607794089609"><g transform="matrix(1,0,0,1,0,0)"><svg width="204.7607794089609" viewBox="4.27 -25.61 34.33 25.61" height="152.7696" data-palette-color="#4a596d"><path d="M8.23 0L4.27 0 4.27-24.98 7.57-24.98 7.93-21.31 8.03-21.31Q9.69-23.14 11.66-24.38 13.62-25.61 15.87-25.61L15.87-25.61Q18.73-25.61 20.35-24.32 21.97-23.02 22.71-20.8L22.71-20.8Q24.68-22.92 26.73-24.27 28.78-25.61 31.01-25.61L31.01-25.61Q34.84-25.61 36.72-23.13 38.6-20.65 38.6-15.87L38.6-15.87 38.6 0 34.67 0 34.67-15.36Q34.67-18.92 33.5-20.56 32.32-22.19 29.88-22.19L29.88-22.19Q27-22.19 23.44-18.19L23.44-18.19 23.44 0 19.46 0 19.46-15.36Q19.46-18.92 18.3-20.56 17.14-22.19 14.67-22.19L14.67-22.19Q11.79-22.19 8.23-18.19L8.23-18.19 8.23 0Z" opacity="1" transform="matrix(1,0,0,1,0,0)" fill="#4a596d" class="wordmark-text-0" data-fill-palette-color="primary" id="text-0"></path></svg></g></svg></g></svg></g></svg></g></svg></g></svg></g></svg></g><g><path d="M225.98 0c68.262 0 123.6 55.338 123.6 123.6 0 68.262-55.338 123.6-123.6 123.6-30.402 0-58.24-10.976-79.768-29.183h11.147c19.26 14.022 42.974 22.294 68.621 22.295 64.458 0 116.712-52.254 116.712-116.712 0-64.458-52.254-116.712-116.712-116.712-25.647 0-49.361 8.272-68.621 22.295l-11.147 0c21.528-18.206 49.366-29.183 79.768-29.183z" fill="#4a596d" stroke="transparent" data-fill-palette-color="tertiary"></path></g></svg></g><defs></defs></svg><rect width="395.52" height="247.2" fill="none" stroke="none" visibility="hidden"></rect></g></svg></g></svg>